<svg xmlns="http://www.w3.org/2000/svg" xmlns:xlink="http://www.w3.org/1999/xlink" width="250" zoomAndPan="magnify" viewBox="0 0 187.5 112.499997" height="150" preserveAspectRatio="xMidYMid meet" version="1.0"><defs><g/><clipPath id="848fafb843"><path d="M 55 44.699219 L 118 44.699219 L 118 52 L 55 52 Z M 55 44.699219 " clip-rule="nonzero"/></clipPath></defs><g fill="#ae6adb" fill-opacity="1"><g transform="translate(63.78445, 61.868564)"><g><path d="M 29.109375 -42.109375 L 0 -42.109375 C 0.488281 -42.109375 0.925781 -41.851562 1.3125 -41.34375 C 1.707031 -40.832031 1.921875 -40.171875 1.953125 -39.359375 L 1.953125 -2.75 C 1.921875 -1.9375 1.707031 -1.273438 1.3125 -0.765625 C 0.925781 -0.253906 0.488281 0 0 0 L 29.15625 0 L 29.15625 -5.859375 C 29.15625 -5.859375 29.082031 -5.628906 28.9375 -5.171875 C 28.800781 -4.710938 28.441406 -4.164062 27.859375 -3.53125 C 27.285156 -2.90625 26.363281 -2.304688 25.09375 -1.734375 C 23.820312 -1.171875 22.039062 -0.769531 19.75 -0.53125 L 8.234375 -0.53125 C 7.992188 -0.769531 7.789062 -1.101562 7.625 -1.53125 C 7.46875 -1.957031 7.390625 -2.429688 7.390625 -2.953125 L 7.390625 -21.078125 L 13.359375 -21.078125 C 14.804688 -20.828125 15.863281 -20.484375 16.53125 -20.046875 C 17.195312 -19.609375 17.628906 -19.210938 17.828125 -18.859375 C 18.023438 -18.503906 18.125 -18.328125 18.125 -18.328125 L 18.125 -24.296875 C 18.125 -24.296875 18.023438 -24.117188 17.828125 -23.765625 C 17.628906 -23.421875 17.195312 -23.023438 16.53125 -22.578125 C 15.863281 -22.140625 14.804688 -21.796875 13.359375 -21.546875 L 7.390625 -21.546875 L 7.390625 -39.09375 C 7.390625 -40.1875 7.691406 -41.03125 8.296875 -41.625 L 19.703125 -41.625 C 21.992188 -41.382812 23.78125 -40.976562 25.0625 -40.40625 C 26.351562 -39.84375 27.285156 -39.242188 27.859375 -38.609375 C 28.441406 -37.984375 28.800781 -37.441406 28.9375 -36.984375 C 29.082031 -36.523438 29.15625 -36.296875 29.15625 -36.296875 L 29.15625 -42.109375 Z M 29.109375 -42.109375 "/></g></g></g><g fill="#ae6adb" fill-opacity="1"><g transform="translate(82.790836, 70.696278)"><g><path d="M 10.34375 0 C 13.550781 0 16.25 -0.429688 18.4375 -1.296875 C 20.632812 -2.160156 22.414062 -3.3125 23.78125 -4.75 C 25.144531 -6.195312 26.1875 -7.78125 26.90625 -9.5 C 27.625 -11.21875 28.101562 -12.929688 28.34375 -14.640625 C 28.59375 -16.359375 28.71875 -17.90625 28.71875 -19.28125 C 28.71875 -20.53125 28.578125 -21.976562 28.296875 -23.625 C 28.023438 -25.28125 27.519531 -26.96875 26.78125 -28.6875 C 26.050781 -30.40625 25.003906 -31.992188 23.640625 -33.453125 C 22.273438 -34.910156 20.507812 -36.085938 18.34375 -36.984375 C 16.175781 -37.878906 13.523438 -38.328125 10.390625 -38.328125 L 0 -38.328125 C 0.445312 -38.328125 0.847656 -38.09375 1.203125 -37.625 C 1.554688 -37.164062 1.75 -36.566406 1.78125 -35.828125 L 1.78125 -2.5 C 1.75 -1.757812 1.554688 -1.15625 1.203125 -0.6875 C 0.847656 -0.226562 0.445312 0 0 0 Z M 7.5 -37.890625 L 7.9375 -37.890625 C 10.757812 -37.859375 13.097656 -37.429688 14.953125 -36.609375 C 16.816406 -35.796875 18.316406 -34.734375 19.453125 -33.421875 C 20.585938 -32.109375 21.4375 -30.695312 22 -29.1875 C 22.5625 -27.6875 22.9375 -26.238281 23.125 -24.84375 C 23.320312 -23.445312 23.421875 -22.242188 23.421875 -21.234375 C 23.421875 -20.222656 23.421875 -19.570312 23.421875 -19.28125 C 23.421875 -19.03125 23.40625 -18.40625 23.375 -17.40625 C 23.34375 -16.414062 23.207031 -15.210938 22.96875 -13.796875 C 22.726562 -12.390625 22.296875 -10.929688 21.671875 -9.421875 C 21.046875 -7.921875 20.144531 -6.492188 18.96875 -5.140625 C 17.800781 -3.796875 16.285156 -2.695312 14.421875 -1.84375 C 12.566406 -1 10.257812 -0.546875 7.5 -0.484375 C 7.28125 -0.703125 7.097656 -1.003906 6.953125 -1.390625 C 6.804688 -1.773438 6.734375 -2.222656 6.734375 -2.734375 L 6.734375 -35.640625 C 6.734375 -36.117188 6.804688 -36.554688 6.953125 -36.953125 C 7.097656 -37.359375 7.28125 -37.671875 7.5 -37.890625 Z M 7.5 -37.890625 "/></g></g></g><g clip-path="url(#848fafb843)"><path fill="#cb6ce6" d="M 58.238281 51.792969 C 58.050781 51.71875 57.710938 51.585938 57.484375 51.496094 C 57.257812 51.402344 57.019531 51.308594 56.953125 51.285156 C 56.585938 51.160156 56.839844 50.835938 57.828125 50.152344 C 58.542969 49.660156 58.867188 49.515625 59.347656 49.476562 C 59.585938 49.457031 59.777344 49.421875 59.777344 49.398438 C 59.777344 49.339844 58.703125 48.804688 58.375 48.703125 C 58.035156 48.597656 57.121094 48.128906 56.933594 47.96875 C 56.613281 47.691406 56.277344 47.1875 55.953125 46.5 C 55.773438 46.113281 55.5625 45.742188 55.324219 45.390625 C 55.140625 45.144531 55.050781 44.960938 55.0625 44.855469 C 55.085938 44.699219 55.09375 44.699219 56.046875 44.703125 C 56.960938 44.703125 57.023438 44.714844 57.414062 44.902344 C 58.089844 45.226562 58.59375 45.792969 59.042969 46.722656 C 59.253906 47.152344 59.445312 47.585938 59.46875 47.679688 C 59.566406 48.058594 59.96875 48.878906 60.125 49.015625 C 60.277344 49.15625 60.671875 49.359375 61.183594 49.558594 C 61.464844 49.679688 61.757812 49.773438 62.058594 49.839844 C 62.140625 49.863281 62.046875 49.78125 61.851562 49.664062 C 61.046875 49.183594 60.65625 48.609375 60.433594 47.570312 C 60.367188 47.273438 60.289062 46.90625 60.253906 46.753906 C 60.160156 46.320312 60.175781 46.035156 60.292969 46.035156 C 60.390625 46.035156 61.175781 46.265625 61.457031 46.375 C 62.648438 46.847656 63.171875 47.453125 63.65625 48.910156 C 64.046875 50.09375 64.398438 50.363281 65.605469 50.40625 C 67.648438 50.480469 70.179688 49.90625 71.109375 49.160156 L 71.3125 49.003906 L 71.003906 48.925781 C 70.390625 48.769531 70 48.359375 70.085938 47.960938 C 70.207031 47.40625 71.027344 47.144531 71.550781 47.492188 C 71.886719 47.730469 72.015625 48.054688 71.933594 48.460938 L 71.890625 48.695312 L 72.257812 48.742188 C 73.191406 48.855469 75.816406 48.398438 76.632812 47.972656 C 76.703125 47.933594 76.78125 47.902344 76.859375 47.882812 C 76.957031 47.863281 77.046875 47.828125 77.136719 47.785156 C 77.414062 47.660156 78.25 47.3125 78.515625 47.210938 C 79.722656 46.75 81.472656 46.671875 82.84375 47.019531 C 84.050781 47.324219 85.320312 48.289062 86.082031 49.476562 C 86.242188 49.730469 86.402344 49.917969 86.4375 49.898438 C 86.515625 49.8125 86.582031 49.714844 86.628906 49.609375 C 86.824219 49.226562 87.542969 48.410156 88.023438 48.019531 C 88.539062 47.601562 89.386719 47.160156 89.953125 47.019531 C 91.585938 46.605469 93.417969 46.78125 95.027344 47.503906 C 95.742188 47.824219 95.878906 47.882812 95.917969 47.882812 C 96.011719 47.90625 96.097656 47.941406 96.179688 47.984375 C 96.660156 48.183594 97.152344 48.335938 97.664062 48.433594 C 97.871094 48.46875 98.078125 48.515625 98.28125 48.574219 C 98.542969 48.667969 100.191406 48.789062 100.542969 48.738281 L 100.851562 48.699219 L 100.851562 48.285156 C 100.851562 47.890625 100.863281 47.863281 101.140625 47.605469 C 101.402344 47.359375 101.457031 47.335938 101.8125 47.335938 C 102.171875 47.335938 102.222656 47.355469 102.46875 47.601562 C 102.777344 47.910156 102.8125 48.175781 102.589844 48.460938 C 102.4375 48.652344 102.074219 48.863281 101.757812 48.9375 C 101.652344 48.964844 101.570312 49.011719 101.570312 49.046875 C 101.570312 49.140625 102.421875 49.601562 102.9375 49.785156 C 104.09375 50.195312 105.539062 50.425781 106.933594 50.425781 C 108.367188 50.421875 108.808594 50.09375 109.1875 48.746094 C 109.273438 48.4375 109.722656 47.554688 109.90625 47.332031 C 110.355469 46.789062 110.832031 46.519531 111.964844 46.171875 C 112.378906 46.042969 112.480469 46.03125 112.570312 46.105469 C 112.644531 46.167969 112.664062 46.246094 112.632812 46.339844 C 112.605469 46.417969 112.53125 46.757812 112.460938 47.097656 C 112.136719 48.679688 111.882812 49.097656 110.886719 49.6875 C 110.527344 49.898438 110.53125 49.902344 110.988281 49.773438 C 111.871094 49.519531 112.535156 49.191406 112.761719 48.890625 C 112.941406 48.59375 113.089844 48.28125 113.210938 47.953125 C 113.925781 46.140625 114.527344 45.289062 115.375 44.898438 C 115.753906 44.722656 115.847656 44.710938 116.734375 44.703125 C 117.914062 44.699219 117.96875 44.734375 117.539062 45.277344 C 117.265625 45.679688 117.023438 46.097656 116.816406 46.539062 C 116.464844 47.261719 116.304688 47.507812 116.011719 47.789062 C 115.519531 48.234375 114.949219 48.550781 114.308594 48.738281 C 114.074219 48.804688 113.007812 49.347656 113.007812 49.398438 C 113.007812 49.421875 113.203125 49.457031 113.4375 49.476562 C 113.921875 49.515625 114.375 49.714844 115.039062 50.1875 C 115.527344 50.535156 116.023438 50.988281 116.023438 51.085938 C 116.023438 51.191406 115.882812 51.28125 115.578125 51.378906 C 115.433594 51.425781 115.296875 51.480469 115.167969 51.550781 C 114.820312 51.769531 114.109375 51.941406 113.679688 51.914062 C 113.226562 51.886719 112.898438 51.730469 111.554688 50.90625 C 111.269531 50.726562 110.96875 50.578125 110.65625 50.453125 C 110.304688 50.335938 110.261719 50.332031 109.8125 50.441406 C 108.167969 50.84375 105.65625 50.828125 103.964844 50.410156 C 102.621094 50.078125 101.816406 49.722656 101.261719 49.210938 C 101.140625 49.101562 100.996094 49.082031 100.164062 49.078125 C 98.347656 49.066406 96.972656 48.75 95.09375 47.914062 C 93.964844 47.414062 93.125 47.199219 92.074219 47.148438 C 90.714844 47.066406 89.480469 47.421875 88.375 48.210938 C 87.542969 48.816406 86.652344 49.917969 86.582031 50.425781 C 86.550781 50.65625 86.523438 50.695312 86.402344 50.679688 C 86.300781 50.664062 86.246094 50.59375 86.222656 50.453125 C 86.128906 49.890625 85.058594 48.609375 84.230469 48.066406 C 83.335938 47.480469 82.117188 47.128906 80.988281 47.128906 C 80.121094 47.128906 78.851562 47.402344 78.105469 47.746094 C 77.628906 47.964844 76.34375 48.46875 75.945312 48.589844 C 74.828125 48.933594 73.238281 49.152344 72.320312 49.089844 L 71.742188 49.054688 L 71.453125 49.292969 C 70.621094 49.972656 69.105469 50.46875 67.246094 50.667969 C 65.894531 50.816406 64.136719 50.722656 63.003906 50.445312 C 62.796875 50.390625 62.582031 50.367188 62.367188 50.378906 C 62.085938 50.433594 61.339844 50.8125 60.753906 51.195312 C 59.929688 51.734375 59.464844 51.925781 58.992188 51.921875 C 58.734375 51.917969 58.480469 51.875 58.238281 51.792969 Z M 71.617188 48.445312 C 71.699219 48.210938 71.574219 47.863281 71.367188 47.753906 C 71.144531 47.632812 70.78125 47.664062 70.617188 47.820312 C 70.332031 48.082031 70.445312 48.300781 70.972656 48.511719 C 71.402344 48.683594 71.539062 48.667969 71.617188 48.445312 Z M 101.769531 48.523438 C 102.332031 48.316406 102.445312 48.125 102.171875 47.835938 C 102.058594 47.71875 101.921875 47.664062 101.757812 47.679688 C 101.585938 47.667969 101.441406 47.722656 101.320312 47.84375 C 101.199219 47.964844 101.144531 48.109375 101.15625 48.28125 C 101.15625 48.683594 101.242188 48.71875 101.769531 48.523438 Z M 101.769531 48.523438 " fill-opacity="1" fill-rule="nonzero"/></g><g fill="#ae6adb" fill-opacity="1"><g transform="translate(66.161517, 81.191374)"><g><path d="M 1.671875 0 L 0.296875 0 L 0.296875 -2.390625 L 1.671875 -2.390625 L 1.671875 -1.96875 L 0.8125 -1.96875 L 0.8125 -1.453125 L 1.609375 -1.453125 L 1.609375 -1.03125 L 0.8125 -1.03125 L 0.8125 -0.421875 L 1.671875 -0.421875 Z M 1.671875 0 "/></g></g></g><g fill="#ae6adb" fill-opacity="1"><g transform="translate(68.541489, 81.191374)"><g><path d="M 1.703125 -0.65625 C 1.703125 -0.445312 1.625 -0.28125 1.46875 -0.15625 C 1.320312 -0.03125 1.109375 0.03125 0.828125 0.03125 C 0.578125 0.03125 0.351562 -0.015625 0.15625 -0.109375 L 0.15625 -0.578125 C 0.3125 -0.503906 0.445312 -0.453125 0.5625 -0.421875 C 0.675781 -0.398438 0.78125 -0.390625 0.875 -0.390625 C 0.976562 -0.390625 1.0625 -0.410156 1.125 -0.453125 C 1.1875 -0.492188 1.21875 -0.554688 1.21875 -0.640625 C 1.21875 -0.679688 1.203125 -0.71875 1.171875 -0.75 C 1.148438 -0.789062 1.113281 -0.828125 1.0625 -0.859375 C 1.007812 -0.898438 0.90625 -0.957031 0.75 -1.03125 C 0.601562 -1.101562 0.492188 -1.171875 0.421875 -1.234375 C 0.347656 -1.296875 0.289062 -1.367188 0.25 -1.453125 C 0.207031 -1.535156 0.1875 -1.628906 0.1875 -1.734375 C 0.1875 -1.953125 0.253906 -2.117188 0.390625 -2.234375 C 0.535156 -2.359375 0.734375 -2.421875 0.984375 -2.421875 C 1.109375 -2.421875 1.226562 -2.40625 1.34375 -2.375 C 1.457031 -2.34375 1.578125 -2.300781 1.703125 -2.25 L 1.53125 -1.859375 C 1.40625 -1.910156 1.300781 -1.945312 1.21875 -1.96875 C 1.132812 -1.988281 1.050781 -2 0.96875 -2 C 0.875 -2 0.800781 -1.972656 0.75 -1.921875 C 0.695312 -1.878906 0.671875 -1.828125 0.671875 -1.765625 C 0.671875 -1.710938 0.679688 -1.671875 0.703125 -1.640625 C 0.722656 -1.609375 0.753906 -1.578125 0.796875 -1.546875 C 0.847656 -1.515625 0.957031 -1.457031 1.125 -1.375 C 1.351562 -1.269531 1.503906 -1.160156 1.578125 -1.046875 C 1.660156 -0.941406 1.703125 -0.8125 1.703125 -0.65625 Z M 1.703125 -0.65625 "/></g></g></g><g fill="#ae6adb" fill-opacity="1"><g transform="translate(70.890453, 81.191374)"><g><path d="M 0.8125 -1.265625 L 0.96875 -1.265625 C 1.125 -1.265625 1.238281 -1.296875 1.3125 -1.359375 C 1.394531 -1.421875 1.4375 -1.507812 1.4375 -1.625 C 1.4375 -1.738281 1.40625 -1.820312 1.34375 -1.875 C 1.28125 -1.9375 1.175781 -1.96875 1.03125 -1.96875 L 0.8125 -1.96875 Z M 1.953125 -1.640625 C 1.953125 -1.378906 1.867188 -1.179688 1.703125 -1.046875 C 1.546875 -0.910156 1.320312 -0.84375 1.03125 -0.84375 L 0.8125 -0.84375 L 0.8125 0 L 0.296875 0 L 0.296875 -2.390625 L 1.0625 -2.390625 C 1.351562 -2.390625 1.570312 -2.328125 1.71875 -2.203125 C 1.875 -2.078125 1.953125 -1.890625 1.953125 -1.640625 Z M 1.953125 -1.640625 "/></g></g></g><g fill="#ae6adb" fill-opacity="1"><g transform="translate(73.497275, 81.191374)"><g><path d="M 1.765625 0 L 1.59375 -0.5625 L 0.71875 -0.5625 L 0.546875 0 L 0 0 L 0.84375 -2.390625 L 1.46875 -2.390625 L 2.3125 0 Z M 1.46875 -1 C 1.3125 -1.507812 1.222656 -1.796875 1.203125 -1.859375 C 1.179688 -1.929688 1.164062 -1.988281 1.15625 -2.03125 C 1.113281 -1.882812 1.007812 -1.539062 0.84375 -1 Z M 1.46875 -1 "/></g></g></g><g fill="#ae6adb" fill-opacity="1"><g transform="translate(76.311366, 81.191374)"><g><path d="M 1.3125 -2 C 1.125 -2 0.976562 -1.925781 0.875 -1.78125 C 0.769531 -1.644531 0.71875 -1.445312 0.71875 -1.1875 C 0.71875 -0.65625 0.914062 -0.390625 1.3125 -0.390625 C 1.476562 -0.390625 1.679688 -0.429688 1.921875 -0.515625 L 1.921875 -0.09375 C 1.722656 -0.0078125 1.503906 0.03125 1.265625 0.03125 C 0.921875 0.03125 0.65625 -0.0703125 0.46875 -0.28125 C 0.28125 -0.488281 0.1875 -0.789062 0.1875 -1.1875 C 0.1875 -1.4375 0.234375 -1.65625 0.328125 -1.84375 C 0.421875 -2.03125 0.550781 -2.171875 0.71875 -2.265625 C 0.882812 -2.367188 1.082031 -2.421875 1.3125 -2.421875 C 1.539062 -2.421875 1.773438 -2.363281 2.015625 -2.25 L 1.84375 -1.84375 C 1.757812 -1.882812 1.671875 -1.921875 1.578125 -1.953125 C 1.484375 -1.984375 1.394531 -2 1.3125 -2 Z M 1.578125 0.40625 C 1.578125 0.539062 1.535156 0.640625 1.453125 0.703125 C 1.367188 0.765625 1.238281 0.796875 1.0625 0.796875 C 0.976562 0.796875 0.898438 0.785156 0.828125 0.765625 L 0.828125 0.5 C 0.859375 0.5 0.894531 0.503906 0.9375 0.515625 C 0.988281 0.523438 1.03125 0.53125 1.0625 0.53125 C 1.144531 0.53125 1.1875 0.492188 1.1875 0.421875 C 1.1875 0.335938 1.09375 0.28125 0.90625 0.25 L 1.03125 0 L 1.359375 0 L 1.3125 0.09375 C 1.382812 0.125 1.445312 0.164062 1.5 0.21875 C 1.550781 0.269531 1.578125 0.332031 1.578125 0.40625 Z M 1.578125 0.40625 "/></g></g></g><g fill="#ae6adb" fill-opacity="1"><g transform="translate(78.949197, 81.191374)"><g><path d="M 2.46875 -1.203125 C 2.46875 -0.804688 2.367188 -0.5 2.171875 -0.28125 C 1.972656 -0.0703125 1.691406 0.03125 1.328125 0.03125 C 0.960938 0.03125 0.679688 -0.0703125 0.484375 -0.28125 C 0.285156 -0.5 0.1875 -0.804688 0.1875 -1.203125 C 0.1875 -1.597656 0.285156 -1.898438 0.484375 -2.109375 C 0.679688 -2.316406 0.960938 -2.421875 1.328125 -2.421875 C 1.703125 -2.421875 1.984375 -2.316406 2.171875 -2.109375 C 2.367188 -1.898438 2.46875 -1.597656 2.46875 -1.203125 Z M 0.71875 -1.203125 C 0.71875 -0.929688 0.769531 -0.726562 0.875 -0.59375 C 0.976562 -0.457031 1.128906 -0.390625 1.328125 -0.390625 C 1.734375 -0.390625 1.9375 -0.660156 1.9375 -1.203125 C 1.9375 -1.734375 1.734375 -2 1.328125 -2 C 1.128906 -2 0.976562 -1.929688 0.875 -1.796875 C 0.769531 -1.660156 0.71875 -1.460938 0.71875 -1.203125 Z M 0.71875 -1.203125 "/></g></g></g><g fill="#ae6adb" fill-opacity="1"><g transform="translate(82.117436, 81.191374)"><g/></g></g><g fill="#ae6adb" fill-opacity="1"><g transform="translate(83.493714, 81.191374)"><g><path d="M 2.28125 -1.21875 C 2.28125 -0.820312 2.164062 -0.519531 1.9375 -0.3125 C 1.71875 -0.101562 1.394531 0 0.96875 0 L 0.296875 0 L 0.296875 -2.390625 L 1.046875 -2.390625 C 1.441406 -2.390625 1.742188 -2.285156 1.953125 -2.078125 C 2.171875 -1.867188 2.28125 -1.582031 2.28125 -1.21875 Z M 1.75 -1.203125 C 1.75 -1.710938 1.523438 -1.96875 1.078125 -1.96875 L 0.8125 -1.96875 L 0.8125 -0.421875 L 1.03125 -0.421875 C 1.507812 -0.421875 1.75 -0.679688 1.75 -1.203125 Z M 1.75 -1.203125 "/></g></g></g><g fill="#ae6adb" fill-opacity="1"><g transform="translate(86.475902, 81.191374)"><g><path d="M 1.765625 0 L 1.59375 -0.5625 L 0.71875 -0.5625 L 0.546875 0 L 0 0 L 0.84375 -2.390625 L 1.46875 -2.390625 L 2.3125 0 Z M 1.46875 -1 C 1.3125 -1.507812 1.222656 -1.796875 1.203125 -1.859375 C 1.179688 -1.929688 1.164062 -1.988281 1.15625 -2.03125 C 1.113281 -1.882812 1.007812 -1.539062 0.84375 -1 Z M 1.53125 -2.578125 C 1.363281 -2.671875 1.238281 -2.765625 1.15625 -2.859375 C 1.0625 -2.773438 0.9375 -2.679688 0.78125 -2.578125 L 0.4375 -2.578125 L 0.4375 -2.609375 C 0.644531 -2.816406 0.785156 -2.984375 0.859375 -3.109375 L 1.4375 -3.109375 C 1.476562 -3.054688 1.539062 -2.976562 1.625 -2.875 C 1.707031 -2.78125 1.785156 -2.691406 1.859375 -2.609375 L 1.859375 -2.578125 Z M 1.53125 -2.578125 "/></g></g></g><g fill="#ae6adb" fill-opacity="1"><g transform="translate(89.289991, 81.191374)"><g><path d="M 1.3125 0 L 0.734375 -1.875 L 0.71875 -1.875 C 0.738281 -1.488281 0.75 -1.234375 0.75 -1.109375 L 0.75 0 L 0.296875 0 L 0.296875 -2.390625 L 0.984375 -2.390625 L 1.546875 -0.5625 L 1.5625 -0.5625 L 2.15625 -2.390625 L 2.859375 -2.390625 L 2.859375 0 L 2.375 0 L 2.375 -1.125 C 2.375 -1.175781 2.375 -1.238281 2.375 -1.3125 C 2.382812 -1.382812 2.394531 -1.570312 2.40625 -1.875 L 2.390625 -1.875 L 1.78125 0 Z M 1.3125 0 "/></g></g></g><g fill="#ae6adb" fill-opacity="1"><g transform="translate(92.949467, 81.191374)"><g><path d="M 1.765625 0 L 1.59375 -0.5625 L 0.71875 -0.5625 L 0.546875 0 L 0 0 L 0.84375 -2.390625 L 1.46875 -2.390625 L 2.3125 0 Z M 1.46875 -1 C 1.3125 -1.507812 1.222656 -1.796875 1.203125 -1.859375 C 1.179688 -1.929688 1.164062 -1.988281 1.15625 -2.03125 C 1.113281 -1.882812 1.007812 -1.539062 0.84375 -1 Z M 1.46875 -1 "/></g></g></g><g fill="#ae6adb" fill-opacity="1"><g transform="translate(95.763556, 81.191374)"><g><path d="M 0.8125 -1.328125 L 0.96875 -1.328125 C 1.125 -1.328125 1.238281 -1.351562 1.3125 -1.40625 C 1.394531 -1.457031 1.4375 -1.539062 1.4375 -1.65625 C 1.4375 -1.769531 1.394531 -1.847656 1.3125 -1.890625 C 1.238281 -1.941406 1.117188 -1.96875 0.953125 -1.96875 L 0.8125 -1.96875 Z M 0.8125 -0.921875 L 0.8125 0 L 0.296875 0 L 0.296875 -2.390625 L 1 -2.390625 C 1.320312 -2.390625 1.5625 -2.328125 1.71875 -2.203125 C 1.875 -2.085938 1.953125 -1.910156 1.953125 -1.671875 C 1.953125 -1.535156 1.910156 -1.410156 1.828125 -1.296875 C 1.753906 -1.191406 1.644531 -1.109375 1.5 -1.046875 C 1.863281 -0.503906 2.097656 -0.15625 2.203125 0 L 1.640625 0 L 1.078125 -0.921875 Z M 0.8125 -0.921875 "/></g></g></g><g fill="#ae6adb" fill-opacity="1"><g transform="translate(98.478092, 81.191374)"><g><path d="M 0.296875 0 L 0.296875 -2.390625 L 0.8125 -2.390625 L 0.8125 0 Z M 0.296875 0 "/></g></g></g><g fill="#ae6adb" fill-opacity="1"><g transform="translate(100.092645, 81.191374)"><g><path d="M 1.703125 -0.65625 C 1.703125 -0.445312 1.625 -0.28125 1.46875 -0.15625 C 1.320312 -0.03125 1.109375 0.03125 0.828125 0.03125 C 0.578125 0.03125 0.351562 -0.015625 0.15625 -0.109375 L 0.15625 -0.578125 C 0.3125 -0.503906 0.445312 -0.453125 0.5625 -0.421875 C 0.675781 -0.398438 0.78125 -0.390625 0.875 -0.390625 C 0.976562 -0.390625 1.0625 -0.410156 1.125 -0.453125 C 1.1875 -0.492188 1.21875 -0.554688 1.21875 -0.640625 C 1.21875 -0.679688 1.203125 -0.71875 1.171875 -0.75 C 1.148438 -0.789062 1.113281 -0.828125 1.0625 -0.859375 C 1.007812 -0.898438 0.90625 -0.957031 0.75 -1.03125 C 0.601562 -1.101562 0.492188 -1.171875 0.421875 -1.234375 C 0.347656 -1.296875 0.289062 -1.367188 0.25 -1.453125 C 0.207031 -1.535156 0.1875 -1.628906 0.1875 -1.734375 C 0.1875 -1.953125 0.253906 -2.117188 0.390625 -2.234375 C 0.535156 -2.359375 0.734375 -2.421875 0.984375 -2.421875 C 1.109375 -2.421875 1.226562 -2.40625 1.34375 -2.375 C 1.457031 -2.34375 1.578125 -2.300781 1.703125 -2.25 L 1.53125 -1.859375 C 1.40625 -1.910156 1.300781 -1.945312 1.21875 -1.96875 C 1.132812 -1.988281 1.050781 -2 0.96875 -2 C 0.875 -2 0.800781 -1.972656 0.75 -1.921875 C 0.695312 -1.878906 0.671875 -1.828125 0.671875 -1.765625 C 0.671875 -1.710938 0.679688 -1.671875 0.703125 -1.640625 C 0.722656 -1.609375 0.753906 -1.578125 0.796875 -1.546875 C 0.847656 -1.515625 0.957031 -1.457031 1.125 -1.375 C 1.351562 -1.269531 1.503906 -1.160156 1.578125 -1.046875 C 1.660156 -0.941406 1.703125 -0.8125 1.703125 -0.65625 Z M 1.703125 -0.65625 "/></g></g></g></svg>